# xmcd
#
# Track frame offsets:
#	182
#	17912
#	35610
#	51857
#	64517
#	82055
#	103115
#	129807
#	147092
#
# Disc length: 2182 seconds
#
# Revision: 1
# Processed by: cddbd v1.5.2PL0 Copyright (c) Steve Scherf et al.
# Submitted via: audiograbber 1.83.01
#
DISCID=75088409
DTITLE=Diverse Artiesten - Donkey Shot
DYEAR=1991
DGENRE=Lokaal
TTITLE0=Zwijnen - Unly man's blues
TTITLE1=Zwijnen - East of town
TTITLE2=Zwijnen - Loony
TTITLE3=Union Morbide - Running for gold
TTITLE4=Union Morbide - Freely chosen
TTITLE5=En Masse - Blind faith
TTITLE6=En Masse - All quiet on the western front
TTITLE7=Matricide - Responsiblities
TTITLE8=Matricide - A menace to society
EXTD=
EXTT0=
EXTT1=
EXTT2=
EXTT3=
EXTT4=
EXTT5=
EXTT6=
EXTT7=
EXTT8=
PLAYORDER=
